<svg width="741" height="247" viewBox="0 0 741 247" fill="none" xmlns="http://www.w3.org/2000/svg">
<mask id="mask0_1_1139" style="mask-type:luminance" maskUnits="userSpaceOnUse" x="0" y="0" width="741" height="247">
<rect width="740.093" height="247" fill="white"/>
</mask>
<g mask="url(#mask0_1_1139)">
<path opacity="0.328939" fill-rule="evenodd" clip-rule="evenodd" d="M76.7894 371.515C93.3173 378.34 111.009 381.85 128.872 381.849C129.472 381.849 130.074 381.845 130.674 381.837C186.181 381.089 235.864 346.989 256.848 295.235L256.274 294.999C227.645 365.702 147.233 399.768 77.0232 370.938C20.8869 347.886 -6.16068 283.142 16.7298 226.612C35.0294 181.42 86.4278 159.645 131.305 178.073C148.559 185.158 162.31 198.854 169.535 216.149C176.761 233.444 176.867 252.921 169.832 270.295C164.21 284.179 153.341 295.246 139.617 301.06C125.892 306.874 110.436 306.96 96.6489 301.298C73.7122 291.88 62.7004 265.52 72.0531 242.423C79.54 223.994 100.427 215.145 118.745 222.642C133.354 228.661 140.368 245.451 134.425 260.176C129.668 271.924 116.354 277.565 104.688 272.774C100.221 270.94 96.6608 267.394 94.7902 262.917C92.9197 258.439 92.892 253.397 94.7134 248.899C97.7421 241.444 106.191 237.865 113.6 240.898C119.49 243.324 122.319 250.094 119.922 256.032C118.007 260.745 112.665 263.008 107.98 261.091C104.264 259.565 102.48 255.294 103.995 251.551C105.197 248.592 108.551 247.171 111.493 248.375C113.812 249.331 114.925 251.996 113.982 254.334C113.236 256.17 111.154 257.052 109.329 256.305C107.902 255.717 107.216 254.077 107.797 252.638C108.251 251.52 109.518 250.983 110.63 251.438C111.486 251.791 111.897 252.775 111.549 253.639C111.282 254.297 110.536 254.613 109.881 254.345C109.39 254.142 109.154 253.578 109.354 253.083C109.402 252.965 109.48 252.862 109.581 252.785C109.511 252.854 109.456 252.938 109.418 253.03C109.335 253.235 109.336 253.465 109.422 253.67C109.507 253.874 109.67 254.036 109.874 254.12C110.109 254.217 110.374 254.215 110.609 254.116C110.844 254.016 111.03 253.827 111.126 253.589C111.36 253.011 111.084 252.351 110.51 252.115C109.831 251.836 109.057 252.164 108.781 252.847C108.452 253.661 108.84 254.59 109.647 254.923C110.618 255.32 111.726 254.851 112.122 253.874C112.6 252.692 112.037 251.343 110.864 250.86C109.435 250.276 107.807 250.965 107.223 252.402C106.514 254.16 107.351 256.164 109.095 256.883C111.237 257.759 113.68 256.725 114.556 254.569C115.628 251.913 114.362 248.883 111.727 247.798C108.469 246.464 104.753 248.038 103.422 251.316C101.782 255.377 103.717 260.009 107.746 261.669C112.748 263.716 118.452 261.299 120.496 256.267C123.021 250.011 120.041 242.877 113.834 240.32C106.108 237.158 97.2978 240.89 94.1399 248.663C92.2565 253.314 92.2851 258.529 94.2193 263.159C96.1536 267.789 99.8351 271.455 104.454 273.352C110.208 275.715 116.659 275.679 122.388 273.252C128.116 270.826 132.652 266.207 134.999 260.412C141.071 245.368 133.904 228.213 118.979 222.065C100.344 214.438 79.0957 223.439 71.4796 242.187C66.9261 253.432 66.995 266.038 71.6714 277.232C76.3477 288.426 85.2483 297.291 96.4151 301.876C110.354 307.6 125.981 307.513 139.857 301.635C153.733 295.756 164.721 284.568 170.405 270.531C185.185 234.032 167.784 192.378 131.539 177.495C109.802 168.569 85.4331 168.705 63.7946 177.872C42.1562 187.039 25.0201 204.486 16.1563 226.376C5.05868 253.718 5.21391 284.381 16.5877 311.606C27.9616 338.832 49.6202 360.386 76.7894 371.515ZM109.655 253.109C109.668 253.1 109.682 253.095 109.697 253.095C109.71 253.095 109.724 253.1 109.737 253.108L109.935 252.341C110.158 252.536 110.254 252.965 110.158 253.34C110.087 253.616 109.887 253.748 109.713 253.636C109.661 253.602 109.62 253.538 109.598 253.456C109.577 253.374 109.576 253.283 109.597 253.201C109.608 253.159 109.629 253.126 109.655 253.109Z" fill="white"/>
<path opacity="0.328939" fill-rule="evenodd" clip-rule="evenodd" d="M717.585 181.926C734.113 188.75 751.805 192.26 769.668 192.259C770.268 192.259 770.869 192.255 771.47 192.248C826.977 191.5 876.659 157.399 897.644 105.646L897.07 105.41C868.441 176.113 788.029 210.179 717.819 181.348C661.683 158.297 634.635 93.5529 657.526 37.0227C675.825 -8.16963 727.224 -29.9441 772.101 -11.5161C789.354 -4.43155 803.106 9.26477 810.331 26.5598C817.556 43.8548 817.663 63.3318 810.628 80.7059C805.006 94.59 794.137 105.656 780.412 111.471C766.688 117.285 751.232 117.371 737.445 111.709C714.508 102.291 703.496 75.9311 712.849 52.8334C720.336 34.4045 741.223 25.5558 759.541 33.0529C774.149 39.0714 781.164 55.8621 775.221 70.5872C770.464 82.3352 757.15 87.9754 745.483 83.1849C741.017 81.3508 737.457 77.8049 735.586 73.3274C733.715 68.8499 733.688 63.8075 735.509 59.3094C738.538 51.8552 746.986 48.2761 754.396 51.3083C760.286 53.7351 763.114 60.5052 760.718 66.4424C758.803 71.1556 753.461 73.4187 748.776 71.5016C745.06 69.9754 743.276 65.7045 744.791 61.962C745.993 59.0027 749.347 57.5818 752.289 58.7858C754.608 59.7414 755.721 62.407 754.778 64.7447C754.031 66.5809 751.95 67.4626 750.125 66.716C748.697 66.1278 748.012 64.4873 748.593 63.0486C749.047 61.9309 750.314 61.3943 751.425 61.8486C752.282 62.2014 752.693 63.186 752.345 64.0494C752.077 64.7076 751.331 65.0236 750.677 64.7558C750.186 64.5532 749.95 63.9888 750.15 63.4936C750.197 63.3755 750.276 63.2726 750.376 63.1955C750.306 63.2652 750.251 63.3485 750.214 63.4403C750.131 63.6456 750.132 63.8758 750.218 64.0803C750.303 64.2847 750.465 64.4466 750.669 64.5304C750.905 64.6273 751.17 64.6259 751.405 64.5265C751.639 64.427 751.825 64.2376 751.922 64C752.155 63.4216 751.88 62.7619 751.306 62.5256C750.627 62.247 749.853 62.575 749.576 63.2581C749.248 64.0723 749.636 65.0005 750.443 65.3333C751.414 65.7311 752.522 65.262 752.918 64.2848C753.396 63.1025 752.832 61.7542 751.659 61.271C750.231 60.6863 748.603 61.3762 748.019 62.8131C747.31 64.5708 748.147 66.5751 749.891 67.2935C752.033 68.1702 754.476 67.1353 755.351 64.9801C756.424 62.3234 755.158 59.2941 752.522 58.2083C749.264 56.8744 745.549 58.4484 744.217 61.7265C742.578 65.788 744.513 70.4193 748.542 72.0793C753.544 74.1264 759.247 71.7101 761.292 66.6779C763.817 60.4217 760.837 53.2878 754.63 50.7308C746.904 47.5687 738.094 51.3009 734.936 59.074C733.052 63.7252 733.081 68.9394 735.015 73.5694C736.949 78.1994 740.631 81.866 745.25 83.7625C751.004 86.1255 757.455 86.0898 763.183 83.663C768.912 81.2363 773.448 76.6175 775.794 70.8226C781.866 55.7786 774.7 38.624 759.774 32.4754C741.14 24.8484 719.891 33.8502 712.275 52.598C707.722 63.843 707.791 76.4491 712.467 87.643C717.143 98.8368 726.044 107.701 737.211 112.287C751.15 118.011 766.777 117.924 780.653 112.046C794.528 106.167 805.517 94.9786 811.201 80.9414C825.98 44.4425 808.579 2.78926 772.335 -12.0938C750.597 -21.0199 726.229 -20.8846 704.59 -11.7176C682.952 -2.55063 665.816 14.8971 656.952 36.7872C645.854 64.1283 646.01 94.7914 657.384 122.017C668.757 149.243 690.416 170.796 717.585 181.926ZM750.451 63.5194C750.464 63.5107 750.478 63.5061 750.492 63.506C750.506 63.506 750.52 63.5104 750.532 63.5187L750.73 62.7513C750.954 62.9466 751.05 63.3761 750.954 63.7506C750.882 64.0266 750.683 64.1589 750.509 64.0462C750.457 64.0128 750.416 63.9483 750.394 63.8667C750.372 63.7851 750.372 63.6932 750.393 63.6113C750.404 63.5699 750.425 63.5368 750.451 63.5194Z" fill="white"/>
<path opacity="0.21596" fill-rule="evenodd" clip-rule="evenodd" d="M275.129 156.211H332.568C333.889 156.209 334.96 155.147 334.961 153.837V94.4983C334.96 93.1878 333.889 92.1258 332.568 92.1243H275.129C273.808 92.1258 272.737 93.1878 272.735 94.4983V153.837C272.737 155.147 273.808 156.209 275.129 156.211ZM273.693 94.4983C273.694 93.712 274.336 93.0747 275.129 93.0739H332.568C333.361 93.0747 334.003 93.712 334.004 94.4983V153.837C334.003 154.623 333.361 155.26 332.568 155.261H275.129C274.336 155.26 273.694 154.623 273.693 153.837V94.4983Z" fill="white"/>
<path opacity="0.8" d="M286.314 104.14C285.396 104.14 284.651 105.336 284.651 106.811C284.651 108.285 285.396 109.481 286.314 109.481H320.058C320.977 109.481 321.722 108.285 321.722 106.811C321.722 105.336 320.977 104.14 320.058 104.14H286.314Z" fill="white"/>
<path opacity="0.8" d="M286.317 112.151C285.722 112.15 285.172 112.658 284.874 113.485C284.577 114.312 284.577 115.331 284.874 116.158C285.172 116.985 285.722 117.494 286.317 117.492H320.059C320.977 117.492 321.722 116.296 321.722 114.822C321.722 113.347 320.977 112.151 320.059 112.151H286.317Z" fill="white"/>
<path d="M302.525 142.859C298.508 142.859 294.888 140.42 293.351 136.678C291.814 132.936 292.664 128.629 295.503 125.766C298.343 122.902 302.614 122.045 306.325 123.595C310.035 125.145 312.454 128.796 312.454 132.846C312.448 138.374 308.006 142.853 302.525 142.859V142.859Z" fill="#F6933E"/>
<path opacity="0.21596" d="M292.157 64.251C305.161 61.7709 318.57 62.4606 331.25 66.2615C337.625 68.1613 343.75 70.8174 349.494 74.1734C355.346 77.5979 360.635 81.8134 365.723 86.2769C370.878 90.7984 375.863 95.5212 381.244 99.778C396.607 112.069 415.678 118.784 435.345 118.827C436.97 118.829 438.594 118.785 440.216 118.692C441.096 118.644 441.102 117.268 440.216 117.317C420.169 118.422 400.372 112.434 384.29 100.402C378.713 96.2281 373.621 91.4555 368.422 86.8306C363.382 82.3468 358.207 77.9851 352.488 74.3827C324.24 56.5706 288.183 57.1698 260.565 75.8097C260.853 76.1155 261.124 76.5233 261.361 76.9388C270.657 70.6975 281.127 66.3757 292.157 64.251Z" fill="white"/>
<path opacity="0.21596" d="M255.524 86.7837C259.18 86.7837 262.144 83.7949 262.144 80.108C262.144 76.4212 259.18 73.4324 255.524 73.4324C251.868 73.4324 248.904 76.4212 248.904 80.108C248.904 83.7949 251.868 86.7837 255.524 86.7837Z" fill="white"/>
<path opacity="0.21596" d="M520.316 181.578C523.972 181.578 526.935 178.59 526.935 174.903C526.935 171.216 523.972 168.227 520.316 168.227C516.66 168.227 513.696 171.216 513.696 174.903C513.696 178.59 516.66 181.578 520.316 181.578Z" fill="white"/>
<path opacity="0.21596" fill-rule="evenodd" clip-rule="evenodd" d="M441.954 132.178H556.311C557.635 132.177 558.709 131.107 558.71 129.787V70.4836C558.709 69.1633 557.635 68.0934 556.311 68.0919H441.954C440.629 68.0934 439.556 69.1633 439.554 70.4836V129.787C439.556 131.107 440.629 132.177 441.954 132.178ZM440.514 70.4835C440.515 69.6913 441.159 69.0494 441.954 69.0485H556.311C557.105 69.0494 557.75 69.6913 557.751 70.4835V129.787C557.75 130.579 557.105 131.221 556.311 131.222H441.954C441.159 131.221 440.515 130.579 440.514 129.787V70.4835Z" fill="white"/>
<path d="M458.752 100.135C464.236 100.135 468.681 95.6519 468.681 90.1216C468.681 84.5913 464.236 80.1081 458.752 80.1081C453.268 80.1081 448.822 84.5913 448.822 90.1216C448.822 95.6519 453.268 100.135 458.752 100.135Z" fill="#F6933E"/>
<path opacity="0.8" d="M484.845 81.4432C484.273 81.4415 483.745 81.9501 483.459 82.777C483.173 83.6039 483.173 84.6232 483.459 85.4501C483.745 86.277 484.273 86.7855 484.845 86.7838H545.198C546.08 86.7838 546.795 85.5883 546.795 84.1135C546.795 82.6388 546.08 81.4432 545.198 81.4432H484.845Z" fill="white"/>
<path opacity="0.8" d="M480.939 92.1243C480.344 92.1225 479.794 92.6311 479.496 93.458C479.198 94.2849 479.198 95.3042 479.496 96.1311C479.794 96.958 480.344 97.4665 480.939 97.4648H514.68C515.599 97.4648 516.344 96.2693 516.344 94.7945C516.344 93.3198 515.599 92.1243 514.68 92.1243H480.939Z" fill="white"/>
<path opacity="0.8" d="M451.041 106.811C449.817 106.811 448.822 108.009 448.822 109.481C448.822 110.953 449.817 112.151 451.041 112.151H540.604C541.827 112.151 542.823 110.953 542.823 109.481C542.823 108.009 541.827 106.811 540.604 106.811H451.041Z" fill="white"/>
<path opacity="0.8" d="M451.041 117.492C449.817 117.492 448.822 118.69 448.822 120.162C448.822 121.634 449.817 122.832 451.041 122.832H540.604C541.827 122.832 542.823 121.634 542.823 120.162C542.823 118.69 541.827 117.492 540.604 117.492H451.041Z" fill="white"/>
<path opacity="0.21596" d="M451.743 183.994C454.979 185.421 458.18 186.943 461.528 188.069C464.345 189.014 467.23 189.725 470.155 190.194C476.025 191.128 481.996 191.166 487.877 190.307C493.788 189.45 499.548 187.709 504.979 185.138C508.541 183.461 511.924 181.415 515.08 179.034C514.599 178.25 514.606 178.285 514.348 177.796C511.723 179.787 508.932 181.541 506.006 183.035C500.707 185.743 495.055 187.63 489.23 188.636C483.386 189.66 477.426 189.767 471.552 188.953C468.621 188.541 465.727 187.887 462.896 186.998C459.645 185.899 456.455 184.611 453.342 183.142C447.001 180.312 439.956 177.54 432.989 179.492C432.19 179.722 431.409 180.012 430.651 180.36C429.831 180.73 430.539 181.977 431.354 181.61C438.019 178.605 445.461 181.225 451.743 183.994Z" fill="white"/>
<path d="M428.962 198.935H374.68L387.455 176.569C387.921 175.753 388.782 175.25 389.714 175.25C390.646 175.25 391.507 175.753 391.973 176.569L397.43 186.123L406.709 169.878C407.292 168.856 408.371 168.227 409.537 168.227C410.704 168.227 411.783 168.856 412.366 169.878L428.962 198.935Z" fill="#F6933E"/>
<path opacity="0.21596" fill-rule="evenodd" clip-rule="evenodd" d="M370.454 198.935H427.893C429.214 198.933 430.285 197.847 430.286 196.507V163.98C430.285 162.639 429.214 161.553 427.893 161.551H370.454C369.133 161.553 368.062 162.639 368.06 163.98V196.507C368.062 197.847 369.133 198.933 370.454 198.935ZM369.018 163.98C369.019 163.175 369.661 162.523 370.454 162.523L427.893 162.523C428.686 162.523 429.328 163.175 429.329 163.98V196.507C429.328 197.311 428.686 197.963 427.893 197.964H370.454C369.661 197.963 369.019 197.311 369.018 196.507V163.98Z" fill="white"/>
<path d="M542.373 172.674L531.995 177.821C528.291 179.658 524.716 179.344 523.347 175.513V175.513C522.688 173.669 522.885 171.635 523.888 169.945C524.892 168.255 526.6 167.076 528.566 166.717L538.43 164.919L580.672 151.233L606.26 133.513L615.641 148.108L586.074 163.688L542.373 172.674Z" fill="#FFB8B8"/>
<path d="M664.627 316.55L655.012 320.522L609.123 259.622L594.7 331.114L585.085 329.348C578.917 267.713 573.888 204.846 580.059 175.112L615.678 173.568L631.849 225.642L639.716 260.946L664.627 316.55Z" fill="#2F2E41"/>
<path d="M603.725 110.816C612.499 110.816 619.613 103.643 619.613 94.7945C619.613 85.946 612.499 78.7729 603.725 78.7729C594.951 78.7729 587.838 85.946 587.838 94.7945C587.838 103.643 594.951 110.816 603.725 110.816Z" fill="#FFB8B8"/>
<path d="M620.936 129.508L599.803 124.978L597.105 107.311L611.943 104.14L620.936 129.508V129.508Z" fill="#FFB8B8"/>
<path d="M616.538 174.903H578.57L587.128 153.938C586.506 146.724 589.64 141.419 594.124 136.8L599.814 122.862C609.007 116.959 615.938 117.4 623.318 125.067C632.069 137.155 626.012 155.327 616.538 174.903Z" fill="#F6933E"/>
<path d="M598.099 219.527L597.052 231.308C596.678 235.514 594.518 238.417 590.492 237.476V237.476C588.553 237.023 586.904 235.728 585.977 233.929C585.049 232.13 584.936 230.007 585.666 228.116L589.329 218.63L599.853 174.692L598.099 142.859H615.641L613.448 176.934L598.099 219.527Z" fill="#FFB8B8"/>
<path d="M616.965 144.195H597.105L598.497 132.169C598.687 127.859 602.386 124.393 607.028 124.178V124.178C609.425 124.067 611.771 124.85 613.542 126.354C615.313 127.858 616.363 129.956 616.457 132.183L616.965 144.195Z" fill="#F6933E"/>
<path d="M621.598 78.7729C624.889 78.7729 627.556 76.083 627.556 72.7648C627.556 69.4466 624.889 66.7567 621.598 66.7567C618.308 66.7567 615.641 69.4466 615.641 72.7648C615.641 76.083 618.308 78.7729 621.598 78.7729Z" fill="#2F2E41"/>
<path d="M615.059 68.4253C615.26 65.2596 617.833 62.799 620.936 62.8067C620.815 62.7909 620.695 62.7718 620.571 62.7637C617.331 62.5527 614.537 65.0655 614.329 68.3773C614.121 71.6892 616.577 74.547 619.816 74.7619C619.94 74.77 620.062 74.7668 620.184 74.7671C617.106 74.3684 614.861 71.5912 615.059 68.4253Z" fill="#2F2E41"/>
<path d="M615.264 73.732C610.175 69.3134 595.577 74.9292 594.635 77.8998C587.752 78.8814 582.542 83.0837 582.542 90.5559V90.5559C586.633 92.3102 591.287 92.094 596.318 90.5559C604.337 97.3952 604.886 105.993 600.01 115.868L606.009 115.994L613.446 104.618L613.802 116.157L627.555 115.868V99.3326C627.6 93.8347 626.39 88.4051 624.028 83.4942C621.885 79.1367 618.559 76.5924 615.264 73.732Z" fill="#2F2E41"/>
<path d="M603.725 104.14C605.187 104.14 606.373 102.646 606.373 100.803C606.373 98.9592 605.187 97.4648 603.725 97.4648C602.263 97.4648 601.077 98.9592 601.077 100.803C601.077 102.646 602.263 104.14 603.725 104.14Z" fill="#FFB8B8"/>
<path d="M242.284 102.721C242.284 102.721 243.933 73.0221 252.494 79.7705C261.055 86.5189 248.755 105.476 248.755 105.476L242.284 102.721Z" fill="#FFB9B9"/>
<path d="M207.859 193.595C207.859 193.595 227.377 216.011 216.457 217.552C205.537 219.093 201.242 196.434 201.242 196.434L207.859 193.595Z" fill="#FFB9B9"/>
<path d="M183.296 86.9023V86.9023C188.426 88.2489 192.244 92.535 192.982 97.7748L199.341 142.919L208.255 178.93C208.255 178.93 212.712 182.932 210.929 185.155C209.146 187.377 213.157 196.714 213.157 196.714L202.015 200.27C202.015 200.27 200.678 190.934 198.45 190.489C196.491 190.099 174.568 131.68 169.284 117.527C168.555 115.576 168.143 114.466 168.143 114.466C168.143 114.466 169.034 84.6794 183.296 86.9023Z" fill="#575A89"/>
<path d="M152.255 184.933L158.875 262.398C158.875 262.398 159.096 308.706 166.157 317.669C173.218 326.632 173.439 331.113 173.439 331.113L188.002 323.858C188.002 323.858 180.5 311.768 182.044 309.917C182.996 308.743 183.674 307.383 184.03 305.932L180.058 258.13L187.561 174.903L152.255 184.933Z" fill="#2F2E41"/>
<path d="M208.46 183.764L211.833 256.771C211.833 256.771 181.049 322.784 177.675 324.532C175.644 325.619 174.123 327.511 173.458 329.778L154.903 324.969L163.337 310.98L181.892 264.203C181.892 264.203 184.844 262.892 185.688 258.52C186.531 254.148 188.218 254.148 184.001 253.274C179.784 252.4 179.784 248.028 179.784 248.028L165.867 181.578L208.46 183.764Z" fill="#2F2E41"/>
<path d="M209.216 59.0739C210.726 49.6917 204.408 40.8516 195.104 39.3291C185.8 37.8066 177.034 44.1781 175.524 53.5603C174.015 62.9426 180.333 71.7826 189.637 73.3051C198.94 74.8277 207.707 68.4561 209.216 59.0739Z" fill="#FFB9B9"/>
<path d="M177.929 56.0756C177.929 56.0756 176.618 77.6088 174.87 79.7199C173.122 81.8309 193.224 81.4087 193.224 81.4087C193.224 81.4087 191.913 63.2533 193.224 61.5645C194.535 59.8756 177.929 56.0756 177.929 56.0756Z" fill="#FFB9B9"/>
<path d="M207.861 190.924C207.861 190.924 159.851 186.584 150.931 190.924C150.931 190.924 154.215 178.477 153.366 177.177C152.749 176.225 154.452 140.77 153.917 120.318C153.614 108.778 151.008 97.5072 158.584 88.939C161.162 86.0286 164.038 83.5853 167.074 82.3919C167.074 82.3919 166.226 74.1445 170.474 73.7111C170.474 73.7111 186.622 71.9715 192.567 77.1845C194.468 78.8396 195.663 83.8837 195.79 88.2297C192.848 103.013 193.889 119.418 196.589 136.436C196.754 137.517 196.936 138.603 197.118 139.69C199.983 156.567 204.313 173.968 207.861 190.924Z" fill="#575A89"/>
<path d="M182.019 60.9434C183.473 60.8558 184.892 61.3519 186.335 61.5454C191.5 62.2378 196.873 58.4532 198.013 53.3196C198.104 52.6359 198.306 51.972 198.61 51.3543C199.405 50.0438 201.215 49.7939 202.707 50.0953C204.2 50.3966 205.614 51.102 207.134 51.1825C209.48 51.3068 211.733 49.848 212.984 47.8391C214.165 45.7666 214.668 43.3698 214.419 40.9915L213.294 42.1837C212.837 41.2072 212.661 40.1207 212.785 39.0478C211.573 38.7218 210.28 39.0559 209.372 39.9298C208.38 40.0364 209.129 38.0719 208.392 37.393C208.033 37.1706 207.606 37.0899 207.193 37.1664C205.082 37.1869 203.375 35.5571 201.713 34.245C198.832 31.9767 195.463 30.4248 191.878 29.7146C189.495 29.2453 186.961 29.1699 184.702 30.0659C182.878 30.8929 181.231 32.0722 179.856 33.5375C176.318 36.9728 173.185 41.0092 171.714 45.7374C170.517 49.6103 170.483 53.7542 171.616 57.6464C172.209 59.6678 173.996 66.5904 176.613 66.7516C179.901 66.9541 177.927 61.1899 182.019 60.9434Z" fill="#2F2E41"/>
<path d="M189.298 86.7838L195.384 87.4541C195.384 87.4541 201.359 99.3715 200.925 101.857C200.491 104.343 199.546 102.834 202.236 106.811C204.925 110.788 212.556 121.068 213.501 122.577C214.446 124.086 240.208 103.879 238.606 97.8243C238.606 97.8243 246.742 103.825 250.228 104.624C250.228 104.624 223.679 140.42 219.979 145.001C216.279 149.583 213.301 148.642 208.217 145.926C203.133 143.209 177.41 116.116 177.41 116.116L189.298 86.7838Z" fill="#575A89"/>
<path opacity="0.1" d="M195.946 141.524L176.086 119.324L181.112 117.492L195.449 138.184C195.605 139.293 195.775 140.409 195.946 141.524Z" fill="black"/>
</g>
</svg>
